<?xml version="1.0" encoding="UTF-8" standalone="no"?><!DOCTYPE svg PUBLIC "-//W3C//DTD SVG 1.1//EN" "http://www.w3.org/Graphics/SVG/1.1/DTD/svg11.dtd"><svg width="100%" height="100%" viewBox="0 0 64 64" version="1.1" xmlns="http://www.w3.org/2000/svg" xmlns:xlink="http://www.w3.org/1999/xlink" xml:space="preserve" xmlns:serif="http://www.serif.com/" style="fill-rule:evenodd;clip-rule:evenodd;stroke-linejoin:round;stroke-miterlimit:2;"><g><path d="M60.916,11.189c0,-5.145 -4.177,-9.322 -9.321,-9.322l-39.189,0c-5.145,0 -9.322,4.177 -9.322,9.322l0,41.622c0,5.145 4.177,9.322 9.322,9.322l39.189,0c5.144,0 9.321,-4.177 9.321,-9.322l0,-41.622Z" style="fill:#780000;"/><g><clipPath id="_clip1"><path d="M60.916,11.189c0,-5.145 -4.177,-9.322 -9.321,-9.322l-39.189,0c-5.145,0 -9.322,4.177 -9.322,9.322l0,41.622c0,5.145 4.177,9.322 9.322,9.322l39.189,0c5.144,0 9.321,-4.177 9.321,-9.322l0,-41.622Z"/></clipPath><g clip-path="url(#_clip1)"><g><path d="M15.647,56.046l6.049,5.98l-18.505,0.107l-0.107,-18.504l6.049,5.979l4.502,-4.555l-6.049,-5.979l18.503,-0.108l0.109,18.505l-6.049,-5.979l-4.502,4.554Z" style="fill:#fff;"/></g><g><g transform="matrix(1,-1.99905e-16,0,0.999994,0,0.000351929)"><text x="38.293px" y="58.722px" style="font-family:'HiraginoSansCNS-W6', 'Hiragino Sans CNS', sans-serif;font-weight:600;font-size:26.658px;fill:#fff;">?</text></g></g><g><g transform="matrix(1,0,0,0.999994,0,0.000178044)"><text x="5.729px" y="29.708px" style="font-family:'HiraginoSansCNS-W6', 'Hiragino Sans CNS', sans-serif;font-weight:600;font-size:26.658px;fill:#fff;">何年</text></g></g></g></g></g></svg>